<svg width="12" height="20" viewBox="0 0 12 20" fill="none" xmlns="http://www.w3.org/2000/svg">
<path id="Vector" d="M10.9718 18.9409C11.2354 18.6772 11.3835 18.3196 11.3835 17.9467C11.3835 17.5738 11.2354 17.2162 10.9718 16.9525L4.01088 9.99155L10.9718 3.03061C11.228 2.76539 11.3697 2.41017 11.3665 2.04146C11.3633 1.67274 11.2154 1.32004 10.9547 1.05931C10.694 0.798576 10.3413 0.650684 9.97254 0.64748C9.60382 0.644276 9.2486 0.786018 8.98338 1.04218L1.02822 8.99733C0.764588 9.26104 0.616488 9.61867 0.616488 9.99155C0.616488 10.3644 0.764588 10.7221 1.02822 10.9858L8.98338 18.9409C9.24709 19.2046 9.60471 19.3527 9.9776 19.3527C10.3505 19.3527 10.7081 19.2046 10.9718 18.9409Z" fill="#0A1425"/>
</svg>
